<?xml version="1.0" standalone="no"?>
<!DOCTYPE svg PUBLIC "-//W3C//DTD SVG 20010904//EN"
 "http://www.w3.org/TR/2001/REC-SVG-20010904/DTD/svg10.dtd">
<svg version="1.0" xmlns="http://www.w3.org/2000/svg"
 width="450.000000pt" height="450.000000pt" viewBox="0 0 450.000000 450.000000"
 preserveAspectRatio="xMidYMid meet">
<metadata>
Created by potrace 1.11, written by Peter Selinger 2001-2013
</metadata>
<g transform="translate(0.000000,450.000000) scale(0.100000,-0.100000)"
fill="#000000" stroke="none">
<path d="M765 3468 c-59 -62 -211 -219 -336 -348 -125 -129 -237 -247 -249
-262 l-21 -27 558 -561 c307 -309 774 -780 1038 -1046 l480 -485 130 135 c72
74 522 529 1000 1011 1024 1032 935 942 935 953 0 5 -12 20 -27 34 -31 28
-485 495 -607 624 l-79 84 -1357 0 -1356 0 -109 -112z"/>
</g>
</svg>
